# xmcd CD database file
#
# Track frame offsets:
#	180
#	34099
#	48741
#	79061
#	96647
#	116948
#	156581
#	177331
#
# Disc length: 2735 seconds
#
# Revision: 4
# Processed by: cddbd v1.4PL0 Copyright (c) Steve Scherf et al.
# Submitted via: CDex 1.50beta9
#
DISCID=730aad08
DTITLE=Eric Clapton - Frisco Blues (2)
DYEAR=1994
DGENRE=Blues
TTITLE0=Have You Ever Loved A Woman
TTITLE1=I'm Tore Down
TTITLE2=Groaning The Blues
TTITLE3=Ain't Nobody's Business
TTITLE4=Early In The Morning
TTITLE5=Driftin'
TTITLE6=Blues Power (Richmond, 1986)
TTITLE7=Before You Accuse Me (London, 1990)
EXTD=YEAR: 1994
EXTT0=
EXTT1=
EXTT2=
EXTT3=
EXTT4=
EXTT5=
EXTT6=
EXTT7=
PLAYORDER=
